<svg width="24" height="24" viewBox="0 0 24 24" fill="none" xmlns="http://www.w3.org/2000/svg">
<g opacity="0.5">
<rect x="23.5" y="23.5" width="23" height="23" rx="2.5" transform="rotate(-180 23.5 23.5)" fill="white" stroke="#D6D8DA"/>
<path d="M9.2782 17.9998C9.42539 17.9955 9.56483 17.9359 9.66775 17.8348L15.334 12.3865C15.5553 12.1737 15.5553 11.8289 15.334 11.6161L9.66775 6.16779C9.5261 6.0252 9.31472 5.96773 9.11552 6.01775C8.91742 6.06776 8.76248 6.21674 8.71047 6.40722C8.65845 6.59876 8.71821 6.80201 8.86651 6.93821L14.1321 12.0013L8.86651 17.0644C8.6994 17.2208 8.64849 17.4603 8.73924 17.6678C8.8311 17.8742 9.04469 18.0062 9.2782 17.9998Z" fill="#D6D8DA"/>
</g>
</svg>
